<?xml version="1.0" encoding="UTF-8" standalone="no"?>
<svg
   xmlns:dc="http://purl.org/dc/elements/1.1/"
   xmlns:cc="http://creativecommons.org/ns#"
   xmlns:rdf="http://www.w3.org/1999/02/22-rdf-syntax-ns#"
   xmlns:svg="http://www.w3.org/2000/svg"
   xmlns="http://www.w3.org/2000/svg"
   xmlns:sodipodi="http://sodipodi.sourceforge.net/DTD/sodipodi-0.dtd"
   xmlns:inkscape="http://www.inkscape.org/namespaces/inkscape"
   width="256px"
   height="249px"
   viewBox="0 0 256 249"
   version="1.1"
   preserveAspectRatio="xMidYMid"
   id="svg2"
   inkscape:version="0.91 r13725"
   sodipodi:docname="kubernetes-seeklogo.com.svg">
  <metadata
     id="metadata16">
    <rdf:RDF>
      <cc:Work
         rdf:about="">
        <dc:format>image/svg+xml</dc:format>
        <dc:type
           rdf:resource="http://purl.org/dc/dcmitype/StillImage" />
        <dc:title></dc:title>
      </cc:Work>
    </rdf:RDF>
  </metadata>
  <defs
     id="defs14">
    <inkscape:perspective
       id="perspective10"
       inkscape:persp3d-origin="372.04724 : 350.78739 : 1"
       inkscape:vp_z="744.09448 : 526.18109 : 1"
       inkscape:vp_y="0 : 1000 : 0"
       inkscape:vp_x="0 : 526.18109 : 1"
       sodipodi:type="inkscape:persp3d" />
    <inkscape:perspective
       sodipodi:type="inkscape:persp3d"
       inkscape:vp_x="0 : 526.18109 : 1"
       inkscape:vp_y="0 : 1000 : 0"
       inkscape:vp_z="744.09448 : 526.18109 : 1"
       inkscape:persp3d-origin="372.04724 : 350.78739 : 1"
       id="perspective2390" />
  </defs>
  <sodipodi:namedview
     pagecolor="#ffffff"
     bordercolor="#666666"
     borderopacity="1"
     objecttolerance="10"
     gridtolerance="10"
     guidetolerance="10"
     inkscape:pageopacity="0"
     inkscape:pageshadow="2"
     inkscape:window-width="1215"
     inkscape:window-height="1000"
     id="namedview12"
     showgrid="false"
     inkscape:zoom="0.47389558"
     inkscape:cx="128"
     inkscape:cy="124.5"
     inkscape:window-x="65"
     inkscape:window-y="24"
     inkscape:window-maximized="1"
     inkscape:current-layer="svg2" />
  <path
     inkscape:connector-curvature="0"
     style="fill:#326d1f;fill-opacity:1"
     id="path6"
     d="m 82.085161,244.93419 c -5.945806,0 -11.56129,-2.64258 -15.36,-7.43226 L 8.9187097,165.65677 C 5.12,160.8671 3.6335484,154.75613 5.12,148.81032 L 25.765161,59.127742 C 27.086452,53.181936 31.050323,48.392258 36.500645,45.749677 L 120.07226,5.7806452 c 2.64258,-1.3212904 5.61548,-1.9819355 8.58838,-1.9819355 2.97291,0 5.94581,0.6606451 8.58839,1.9819355 l 83.57162,39.8038708 c 5.45032,2.642581 9.41419,7.432258 10.73548,13.378065 l 20.64516,89.682579 c 1.32129,5.94581 0,12.05677 -3.79871,16.84645 l -57.80645,71.84516 c -3.79871,4.62452 -9.4142,7.43226 -15.36,7.43226 l -93.150969,0.16516 0,0 z" />
  <path
     style="fill:#ffffff"
     inkscape:connector-curvature="0"
     id="path8"
     d="m 128.49548,7.9277419 c 2.31226,0 4.62452,0.4954839 6.77162,1.4864517 l 83.57161,39.8038704 c 4.29419,2.147097 7.59742,6.110968 8.58839,10.735484 l 20.64516,89.682582 c 1.15613,4.78968 0,9.74451 -3.13807,13.54322 l -57.80645,71.84517 c -2.9729,3.79871 -7.59742,5.9458 -12.3871,5.9458 l -92.655479,0 c -4.789677,0 -9.414193,-2.14709 -12.387097,-5.9458 L 11.891613,163.17935 C 8.9187097,159.38064 7.7625807,154.42581 8.7535484,149.63613 L 29.39871,59.953548 C 30.554839,55.163871 33.692903,51.2 37.987097,49.218064 L 121.55871,9.2490323 c 2.1471,-0.8258065 4.62452,-1.3212904 6.93677,-1.3212904 l 0,0 z m 0,-7.76258061 0,0 c -3.46838,0 -6.93677,0.82580645 -10.24,2.31225811 L 34.683871,42.446452 C 28.077419,45.584516 23.452903,51.365161 21.80129,58.467097 L 1.156129,148.14968 c -1.65161287,7.10193 0,14.36903 4.6245162,20.14967 l 57.8064518,71.84517 c 4.459355,5.61548 11.230968,8.75354 18.332903,8.75354 l 92.65548,0 c 7.10194,0 13.87355,-3.13806 18.33291,-8.75354 l 57.80645,-71.84517 c 4.62451,-5.61548 6.27613,-13.04774 4.62451,-20.14967 L 234.69419,58.467097 C 233.04258,51.365161 228.41807,45.584516 221.81161,42.446452 L 138.57032,2.4774194 C 135.43226,0.99096774 131.96387,0.16516129 128.49548,0.16516129 l 0,0 0,0 z" />
  <path
     id="path3177"
     style="fill:#ffffff;fill-opacity:1;fill-rule:evenodd;stroke:none;stroke-width:1px;stroke-linecap:butt;stroke-linejoin:miter;stroke-opacity:1"
     d="m 86.860704,405.87846 c -6.70987,16.11976 -27.42427,38.14456 -30.21005,47.89493 -8.36203,29.26754 30.54999,48.28514 49.232526,20.66619 38.2059,17.59349 43.35614,-10.74979 43.84102,-13.64265 1.7594,-10.49677 4.94527,-29.85156 -43.35684,-62.33887 38.01549,21.37641 39.98227,32.17154 62.77516,29.53132 18.55361,-2.16786 36.13534,-22.27869 8.82488,-47.91366 21.67758,-39.30846 -23.64414,-46.99285 -39.96939,-37.98907 -6.21779,3.42927 -14.45305,7.08429 -39.148636,37.98907 2.870606,-14.48121 29.613496,-34.77943 31.433346,-52.11126 1.7185,-16.36676 -17.71172,-47.27973 -48.259346,-16.7324 -54.34377,-25.2814 -65.9181,39.5248 -7.16002,73.52936 -12.23366,-1.87863 -36.40099,-26.26893 -57.74851,-24.14354 -21.3475298,2.12538 -37.91093,22.85569 -8.8395198,47.93244 -14.89072,32.28726 11.0957998,45.66729 31.0404498,40.17271 19.94465,-5.49457 37.21481,-26.47342 47.54493,-42.84457 z"
     sodipodi:nodetypes="cscscscscsccscsc"
     inkscape:connector-curvature="0" />
  <g
     id="g4217"
     transform="matrix(1.0850647,0.0235992,-0.02350602,1.0807805,-8.5091918,-16.922531)">
    <path
       inkscape:connector-curvature="0"
       id="path4170"
       d="m 139.59001,234.87922 c -2.88564,-7.53081 -7.32495,-20.88971 -7.03743,-21.17723 0.20681,-0.20681 1.66752,0.28145 3.24603,1.08502 1.57851,0.80357 4.23564,1.86897 5.90473,2.36756 2.75673,0.82347 3.36163,1.4974 6.60363,7.35718 1.9629,3.54787 3.56137,6.78639 3.55215,7.19672 -0.009,0.41034 -2.47726,1.49955 -5.48454,2.42048 -6.41131,1.96335 -6.32347,1.95363 -6.78457,0.75027 z"
       style="fill:#326d1f;fill-opacity:1;stroke-width:13.73799992;stroke-miterlimit:4;stroke-dasharray:none" />
    <path
       inkscape:connector-curvature="0"
       id="path4172"
       d="m 139.16931,234.19161 c -4.11713,-11.42602 -6.97897,-20.12738 -6.70871,-20.39765 0.18378,-0.18377 3.06591,0.75029 6.40475,2.07568 l 6.07061,2.4098 3.34487,6.00658 c 1.83968,3.30361 3.45106,6.44734 3.58085,6.98606 0.23059,0.95711 -4.60572,3.01796 -9.71692,4.14057 -2.01927,0.44351 -2.43752,0.27187 -2.97545,-1.22104 z"
       style="fill:#326d1f;fill-opacity:1;stroke-width:13.73799992;stroke-miterlimit:4;stroke-dasharray:none" />
    <path
       inkscape:connector-curvature="0"
       id="path4174"
       d="m 139.12016,234.13316 c -3.01074,-8.01419 -6.93298,-20.06577 -6.62932,-20.36943 0.20723,-0.20723 3.06964,0.67728 6.36092,1.96558 l 5.98414,2.34236 3.39422,6.07234 c 1.86682,3.33979 3.50071,6.53112 3.63088,7.09185 0.15575,0.67095 -1.53468,1.62743 -4.94455,2.79772 -6.38707,2.19207 -7.00722,2.19999 -7.79629,0.0996 z"
       style="fill:#326d1f;fill-opacity:1;stroke-width:13.73799992;stroke-miterlimit:4;stroke-dasharray:none" />
    <path
       inkscape:connector-curvature="0"
       id="path4176"
       d="m 138.79866,233.3871 c -1.93774,-4.65617 -6.6234,-19.30779 -6.28344,-19.64775 0.18853,-0.18853 3.07503,0.70057 6.41445,1.97577 l 6.07167,2.31855 3.30913,6.09135 c 1.82002,3.35023 3.41669,6.55011 3.54816,7.11084 0.15748,0.67167 -1.52865,1.62618 -4.94218,2.79772 -2.84967,0.97801 -5.6149,1.77821 -6.14496,1.77821 -0.53007,0 -1.41784,-1.09111 -1.97283,-2.42469 z"
       style="fill:#326d1f;fill-opacity:1;stroke-width:13.73799992;stroke-miterlimit:4;stroke-dasharray:none" />
    <path
       inkscape:connector-curvature="0"
       id="path4186"
       d="m 139.1685,234.50619 c -1.23366,-2.39788 -7.00122,-20.41891 -6.64802,-20.7721 0.38189,-0.3819 10.89366,3.30099 12.1537,4.25816 0.43073,0.3272 2.38386,3.63081 4.34027,7.34137 l 3.55712,6.74646 -2.1021,0.83849 c -3.26015,1.30042 -8.5755,2.89322 -9.655,2.89322 -0.53584,0 -1.27653,-0.58752 -1.64597,-1.3056 z"
       style="fill:#326d1f;fill-opacity:1;stroke-width:13.73799992;stroke-miterlimit:4;stroke-dasharray:none" />
    <g
       id="g4190">
      <path
         sodipodi:nodetypes="cscscscscsccscsc"
         d="m 122.97062,141.63783 c -8.46631,13.30384 -30.629353,29.89013 -34.582395,38.11263 -11.865785,24.68136 21.116405,46.82952 42.216335,25.02546 32.53827,20.79383 41.32445,-3.51427 42.18381,-6.0009 3.11812,-9.02275 8.81415,-25.66766 -30.85503,-60.99905 31.82158,24.10668 32.07993,33.90623 53.3734,34.71655 17.33575,0.6431 36.35,-14.68548 14.96159,-41.07597 25.52279,-31.709328 -14.96455,-44.737229 -31.23477,-39.039398 -6.19683,2.170136 -14.27725,4.26153 -41.36562,28.137328 4.70859,-12.38658 32.1562,-26.61817 36.30892,-41.665699 C 177.89835,64.639124 164.49708,34.675767 132.09001,57.429679 85.844606,27.626225 65.940189,83.233861 114.98666,121.34526 104.0299,118.00131 85.347389,93.142573 65.453989,92.076998 45.560581,91.011422 27.392008,107.02711 50.476271,133.1675 c -18.289232,26.44715 3.639848,41.83813 22.728581,39.73649 19.088734,-2.10162 37.941438,-18.23927 49.765768,-31.26616 z"
         style="fill:#279716;fill-opacity:1;fill-rule:evenodd;stroke:#279716;stroke-width:12.51362419;stroke-linecap:butt;stroke-linejoin:miter;stroke-miterlimit:4;stroke-dasharray:none;stroke-opacity:1"
         id="path2402"
         inkscape:connector-curvature="0" />
      <path
         style="fill:#279716;fill-opacity:1;stroke-width:13.73799992;stroke-miterlimit:4;stroke-dasharray:none"
         d="m 134.94816,231.34094 c -1.32469,-2.57481 -6.98797,-20.43215 -6.6022,-20.81792 0.21672,-0.21672 2.98217,0.55978 6.14546,1.72554 6.27587,2.31284 6.82666,2.8924 11.44663,12.0445 l 2.34596,4.64733 -2.06849,0.82571 c -3.22658,1.28801 -8.54569,2.88044 -9.62139,2.88044 -0.53584,0 -1.27653,-0.58752 -1.64597,-1.3056 z"
         id="path4188"
         inkscape:connector-curvature="0" />
    </g>
    <path
       inkscape:connector-curvature="0"
       id="path2402-2"
       style="fill:#326d1f;fill-opacity:1;fill-rule:evenodd;stroke:#279716;stroke-width:12.51362419;stroke-linecap:butt;stroke-linejoin:miter;stroke-miterlimit:4;stroke-dasharray:none;stroke-opacity:1"
       d="m 123.11202,143.29005 c -8.46631,13.30384 -30.629349,29.89013 -34.582391,38.11263 -11.865785,24.68136 21.116401,46.82952 42.216331,25.02546 32.53827,20.79383 41.32445,-3.51427 42.18381,-6.0009 3.11812,-9.02275 8.81415,-25.66766 -30.85503,-60.99905 31.82158,24.10668 32.07993,33.90623 53.3734,34.71655 17.33575,0.6431 36.35,-14.68548 14.96159,-41.07597 25.52279,-31.70932 -14.96455,-44.737226 -31.23477,-39.039395 -6.19683,2.170136 -14.27725,4.26153 -41.36562,28.137325 4.70859,-12.38658 32.1562,-26.618167 36.30892,-41.665696 C 178.03975,66.291347 164.63848,36.32799 132.23141,59.081902 85.98601,29.278448 66.081593,84.886084 115.12806,122.99748 104.1713,119.65353 85.488793,94.794796 65.595393,93.729221 45.701985,92.663645 27.533412,108.67933 50.617675,134.81972 c -18.289232,26.44715 3.639848,41.83813 22.728581,39.73649 19.088734,-2.10162 37.941434,-18.23927 49.765764,-31.26616 z"
       sodipodi:nodetypes="cscscscscsccscsc" />
  </g>
  <path
     style="fill:#ffffff"
     inkscape:connector-curvature="0"
     id="path10"
     d="m 214.0334,141.66014 0,0 0,0 c -0.16516,0 -0.16516,0 0,0 l -0.16516,0 c -0.16517,0 -0.33033,0 -0.33033,-0.16516 -0.33032,0 -0.66064,-0.16516 -0.99096,-0.16516 -1.15613,-0.16516 -2.1471,-0.33032 -3.13807,-0.33032 -0.49548,0 -0.99097,0 -1.65161,-0.16516 l -0.16516,0 c -3.46839,-0.33033 -6.27613,-0.66065 -8.91871,-1.48646 -1.15613,-0.49548 -1.48645,-1.15612 -1.81678,-1.81677 0,-0.16516 -0.16516,-0.16516 -0.16516,-0.33032 l 0,0 -2.14709,-0.66065 c 0.99096,-7.59742 0.66064,-15.52516 -1.15613,-23.28774 -1.81678,-7.76258 -4.95484,-15.029681 -9.24904,-21.636135 l 1.65162,-1.48645 0,-0.33032 c 0,-0.82581 0.16516,-1.65162 0.8258,-2.47742 1.98194,-1.81678 4.45936,-3.30323 7.43226,-5.12 l 0,0 c 0.49549,-0.33033 0.99097,-0.49549 1.48645,-0.82581 0.99097,-0.49548 1.81678,-0.99097 2.80774,-1.65161 0.16517,-0.16516 0.49549,-0.33033 0.82581,-0.66065 0.16516,-0.16516 0.33033,-0.16516 0.33033,-0.33032 l 0,0 c 2.31225,-1.98194 2.80774,-5.28516 1.15612,-7.43226 -0.8258,-1.15613 -2.31226,-1.81677 -3.79871,-1.81677 -1.32129,0 -2.47742,0.49548 -3.63355,1.32129 l 0,0 0,0 c -0.16516,0.16516 -0.16516,0.16516 -0.33032,0.33032 -0.33032,0.16516 -0.49548,0.49548 -0.8258,0.66065 -0.82581,0.8258 -1.48646,1.48645 -2.1471,2.31225 -0.33032,0.33033 -0.66065,0.82581 -1.15613,1.15613 l 0,0 c -2.31226,2.47742 -4.45935,4.45936 -6.60645,5.94581 -0.49549,0.33032 -0.99097,0.49548 -1.48645,0.49548 -0.33033,0 -0.66065,0 -0.99097,-0.16516 l -0.33032,0 0,0 -1.98194,1.32129 c -2.1471,-2.31226 -4.45935,-4.29419 -6.77161,-6.27613 -9.90968,-7.76258 -21.96645,-12.55226 -34.51871,-13.70838 l -0.16516,-2.1471 c -0.16516,-0.16516 -0.16516,-0.16516 -0.33033,-0.33032 -0.49548,-0.49549 -1.15612,-0.99097 -1.32129,-2.1471 -0.16516,-2.64258 0.16517,-5.61548 0.49549,-8.91871 l 0,-0.16516 c 0,-0.49549 0.16516,-1.15613 0.33032,-1.65161 0.16516,-0.99097 0.33032,-1.98194 0.49548,-3.13807 l 0,-0.99097 0,-0.49548 0,0 0,0 c 0,-2.9729 -2.31225,-5.45032 -5.12,-5.45032 -1.32129,0 -2.64257,0.66064 -3.63354,1.65161 -0.99097,0.99097 -1.48646,2.31226 -1.48646,3.79871 l 0,0 0,0 0,0.33032 0,0.99097 c 0,1.15613 0.16517,2.1471 0.49549,3.13806 0.16516,0.49549 0.16516,0.99097 0.33032,1.65162 l 0,0.16516 c 0.33032,3.30322 0.82581,6.27613 0.49549,8.91871 -0.16517,1.15613 -0.82581,1.65161 -1.3213,2.14709 -0.16516,0.16517 -0.16516,0.16517 -0.33032,0.33033 l 0,0 -0.16516,2.14709 c -2.9729,0.33033 -5.9458,0.66065 -8.91871,1.32129 -12.71742,2.80775 -23.948378,9.24904 -32.701928,18.49807 l -1.65162,-1.15613 -0.33032,0 c -0.33032,0 -0.66064,0.16516 -0.99097,0.16516 -0.49548,0 -0.99096,-0.16516 -1.48645,-0.49548 -2.14709,-1.48645 -4.29419,-3.63355 -6.60645,-6.11097 l 0,0 c -0.33032,-0.33032 -0.66064,-0.82581 -1.15613,-1.15613 -0.66064,-0.82581 -1.32129,-1.48645 -2.14709,-2.31226 -0.16517,-0.16516 -0.49549,-0.33032 -0.82581,-0.66064 -0.16516,-0.16516 -0.33032,-0.16516 -0.33032,-0.33033 l 0,0 c -0.99097,-0.8258 -2.31226,-1.32129 -3.63355,-1.32129 -1.48645,0 -2.97291,0.66065 -3.79871,1.81678 -1.65161,2.1471 -1.15613,5.45032 1.15613,7.43226 l 0,0 0,0 c 0.16516,0 0.16516,0.16516 0.33032,0.16516 0.33032,0.16516 0.49548,0.49548 0.82581,0.66064 0.99096,0.66065 1.81677,1.15613 2.80774,1.65162 0.49548,0.16516 0.99097,0.49548 1.48645,0.8258 l 0,0 c 2.9729,1.81678 5.45032,3.30323 7.43226,5.12 0.8258,0.82581 0.8258,1.65162 0.8258,2.47742 l 0,0.33032 0,0 1.65162,1.48646 c -0.33033,0.49548 -0.66065,0.8258 -0.82581,1.32129 -8.25806,13.047745 -11.39613,28.407745 -9.24903,43.602585 l -2.1471,0.66064 c 0,0.16517 -0.16516,0.16517 -0.16516,0.33033 -0.33032,0.66064 -0.82581,1.32129 -1.81677,1.81677 -2.47742,0.82581 -5.45033,1.15613 -8.91871,1.48645 l -0.16516,0 c -0.49549,0 -1.15613,0 -1.65162,0.16516 -0.99097,0 -1.98193,0.16517 -3.13806,0.33033 -0.33032,0 -0.66065,0.16516 -0.99097,0.16516 -0.16516,0 -0.33032,0 -0.49548,0.16516 l 0,0 0,0 c -2.97291,0.66064 -4.78968,3.46839 -4.2942,6.11097 0.49549,2.31225 2.64258,3.79871 5.28516,3.79871 0.49549,0 0.82581,0 1.32129,-0.16516 l 0,0 0,0 c 0.16517,0 0.33033,0 0.33033,-0.16517 0.33032,0 0.66064,-0.16516 0.99096,-0.16516 1.15613,-0.33032 1.98194,-0.66064 2.97291,-1.15613 0.49548,-0.16516 0.99097,-0.49548 1.48645,-0.66064 l 0.16516,0 c 3.13807,-1.15613 5.94581,-2.1471 8.58839,-2.47742 l 0.33032,0 c 0.99097,0 1.65161,0.49548 2.1471,0.82581 0.16516,0 0.16516,0.16516 0.33032,0.16516 l 0,0 2.31226,-0.33033 c 3.96387,12.22194 11.56129,23.12258 21.63613,31.05033 2.31225,1.81677 4.62451,3.30322 7.10193,4.78967 l -0.99097,2.1471 c 0,0.16516 0.16517,0.16516 0.16517,0.33032 0.33032,0.66065 0.66064,1.48646 0.33032,2.64258 -0.99097,2.47742 -2.47742,4.95484 -4.2942,7.76258 l 0,0.16517 c -0.33032,0.49548 -0.66064,0.8258 -0.99096,1.32129 -0.66065,0.8258 -1.15613,1.65161 -1.81678,2.64258 -0.16516,0.16516 -0.33032,0.49548 -0.49548,0.8258 0,0.16516 -0.16516,0.33033 -0.16516,0.33033 l 0,0 0,0 c -1.32129,2.80774 -0.33032,5.9458 2.14709,7.10193 0.66065,0.33032 1.32129,0.49549 1.98194,0.49549 1.98194,0 3.96387,-1.32129 4.954833,-3.13807 l 0,0 0,0 c 0,-0.16516 0.16516,-0.33032 0.16516,-0.33032 0.16516,-0.33032 0.33032,-0.66065 0.49548,-0.82581 0.49549,-1.15613 0.660645,-1.98193 0.990965,-2.9729 0.16516,-0.49549 0.33032,-0.99097 0.4955,-1.48645 l 0,0 c 1.15612,-3.30323 1.98193,-5.94581 3.46838,-8.25807 0.66065,-0.99097 1.48645,-1.15613 2.1471,-1.48645 0.16516,0 0.16516,0 0.33032,-0.16516 l 0,0 1.15613,-2.1471 c 7.2671,2.80774 15.19484,4.2942 23.12258,4.2942 4.78968,0 9.74452,-0.49549 14.36903,-1.65162 2.97291,-0.66064 5.78065,-1.48645 8.58839,-2.47742 l 0.99097,1.81678 c 0.16516,0 0.16516,0 0.33032,0.16516 0.82581,0.16516 1.48645,0.49548 2.1471,1.48645 1.32129,2.31226 2.31225,5.12 3.46838,8.25807 l 0,0.16516 c 0.16516,0.49548 0.33033,0.99096 0.49549,1.48645 0.33032,0.99097 0.49548,1.98193 0.99096,2.9729 0.16517,0.33032 0.33033,0.49549 0.49549,0.82581 0,0.16516 0.16516,0.33032 0.16516,0.33032 l 0,0 0,0 c 0.99097,1.98194 2.9729,3.13807 4.95484,3.13807 0.66064,0 1.32129,-0.16517 1.98193,-0.49549 1.15613,-0.66064 2.1471,-1.65161 2.47742,-2.9729 0.33033,-1.32129 0.33033,-2.80774 -0.33032,-4.12903 l 0,0 0,0 c 0,-0.16517 -0.16516,-0.16517 -0.16516,-0.33033 -0.16516,-0.33032 -0.33032,-0.66064 -0.49548,-0.8258 -0.49549,-0.99097 -1.15613,-1.81678 -1.81678,-2.64258 -0.33032,-0.49549 -0.66064,-0.82581 -0.99097,-1.32129 l 0,-0.16517 c -1.81677,-2.80774 -3.46838,-5.28516 -4.29419,-7.76258 -0.33032,-1.15612 0,-1.81677 0.16516,-2.64258 0,-0.16516 0.16516,-0.16516 0.16516,-0.33032 l 0,0 -0.8258,-1.98193 c 8.75354,-5.12 16.1858,-12.3871 21.80129,-21.30581 2.9729,-4.62452 5.28516,-9.74452 6.93677,-14.86452 l 1.98194,0.33033 c 0.16516,0 0.16516,-0.16517 0.33032,-0.16517 0.66065,-0.33032 1.15613,-0.8258 2.1471,-0.8258 l 0.33032,0 c 2.64258,0.33032 5.45032,1.32129 8.58839,2.47742 l 0.16516,0 c 0.49548,0.16516 0.99096,0.49548 1.48645,0.66064 0.99097,0.49549 1.81677,0.82581 2.9729,1.15613 0.33032,0 0.66065,0.16516 0.99097,0.16516 0.16516,0 0.33032,0 0.49548,0.16516 l 0,0 c 0.49549,0.16517 0.82581,0.16517 1.32129,0.16517 2.47742,0 4.62452,-1.65162 5.28517,-3.79871 0,-1.98194 -1.81678,-4.62452 -4.78968,-5.45033 l 0,0 z m -76.46968,-8.0929 -7.2671,3.46839 -7.26709,-3.46839 -1.81678,-7.76258 4.95484,-6.27613 8.0929,0 4.95484,6.27613 -1.65161,7.76258 0,0 z m 43.1071,-17.17677 c 1.32129,5.61548 1.65161,11.23096 1.15613,16.68129 l -25.26968,-7.2671 c -2.31226,-0.66064 -3.63355,-2.9729 -3.13807,-5.28516 0.16517,-0.66065 0.49549,-1.32129 0.99097,-1.81678 l 19.98452,-18.00258 c 2.80774,4.62452 4.95484,9.90968 6.27613,15.69033 l 0,0 z M 166.46695,90.790455 144.83082,106.15047 c -1.81678,1.15612 -4.2942,0.8258 -5.78065,-0.99097 -0.49548,-0.49548 -0.66064,-1.15613 -0.8258,-1.81678 l -1.48646,-26.921295 c 11.39613,1.32129 21.80129,6.44129 29.72904,14.36903 l 0,0 z m -47.89678,-13.54322 c 1.81678,-0.33032 3.46839,-0.66065 5.28516,-0.99097 l -1.48645,26.425815 c -0.16516,2.31226 -1.98193,4.29419 -4.45935,4.29419 -0.66065,0 -1.48646,-0.16516 -1.98194,-0.49548 L 93.961142,90.790455 c 6.771598,-6.77161 15.194838,-11.39613 24.609028,-13.54322 l 0,0 z m -32.536768,23.452905 19.654188,17.5071 c 1.81678,1.48645 1.98194,4.29419 0.49549,6.11097 -0.49549,0.66064 -1.15613,1.15613 -1.98194,1.32129 l -25.599998,7.43226 c -0.99097,-11.23097 1.48645,-22.6271 7.43226,-32.37162 l 0,0 z m -4.45936,44.75871 26.260648,-4.45935 c 2.14709,-0.16516 4.12903,1.32129 4.62451,3.46838 0.16517,0.99097 0.16517,1.81678 -0.16516,2.64259 l 0,0 -10.07483,24.27871 C 92.970172,165.44337 85.537922,156.3595 81.574042,145.45885 l 0,0 z m 60.283868,32.8671 c -3.79871,0.82581 -7.59742,1.32129 -11.56129,1.32129 -5.78064,0 -11.39612,-0.99097 -16.68129,-2.64258 l 13.04775,-23.61807 c 1.32129,-1.48645 3.46838,-2.14709 5.28516,-1.15612 0.8258,0.49548 1.48645,1.15612 1.98193,1.81677 l 0,0 12.71742,22.95742 c -1.48645,0.49548 -3.13806,0.82581 -4.78968,1.32129 l 0,0 z m 32.20646,-22.95742 c -4.12904,6.60645 -9.57936,11.89161 -15.85549,16.02065 l -10.40516,-24.93936 c -0.49548,-1.98194 0.33032,-4.12903 2.31226,-5.12 0.66064,-0.33032 1.48645,-0.49548 2.31226,-0.49548 l 26.4258,4.45935 c -0.99097,3.63355 -2.64258,6.93678 -4.78967,10.07484 l 0,0 z" />
</svg>
