<?xml version="1.0" encoding="UTF-8" standalone="no"?>
<!-- Created with Inkscape (http://www.inkscape.org/) -->
<svg id="svg2" xmlns:rdf="http://www.w3.org/1999/02/22-rdf-syntax-ns#" xmlns="http://www.w3.org/2000/svg" height="500" width="500" version="1.1" xmlns:cc="http://creativecommons.org/ns#" xmlns:dc="http://purl.org/dc/elements/1.1/">
 <metadata id="metadata8">
  <rdf:RDF>
   <cc:Work rdf:about="">
    <dc:format>image/svg+xml</dc:format>
    <dc:type rdf:resource="http://purl.org/dc/dcmitype/StillImage"/>
    <dc:title/>
   </cc:Work>
  </rdf:RDF>
 </metadata>
 <path id="path3054" fill="#000" d="m425.79,518.31zm4.6747,1.847c-0.0961-1.7417-0.61029-3.3167-1.1427-3.5-0.59665-0.20546-0.61751-0.89762-0.0544-1.8044,1.4465-2.3292,2.1808-0.61111,1.7596,4.117-0.28965,3.2515-0.43212,3.5522-0.56258,1.1874zm7,0c-0.0961-1.7417-0.73721-3.3729-1.4247-3.625-0.99137-0.3635-0.99482-0.72902-0.0167-1.7667,1.8307-1.9421,2.438-0.66803,2.004,4.2042-0.28965,3.2515-0.43212,3.5522-0.56258,1.1874zm-295.87-230.09c-2.1203-0.23695-4.2274-1.5291-6.25-3.8327-3.031-3.4521-3.0513-3.5535-3.0476-15.19,0.004-12.531,1.2933-16.698,5.934-19.182,1.4146-0.75706,19.929-1.0883,60.072-1.0746,63.124,0.0214,61.217-0.1456,63.831,5.592,1.6303,3.578,2.4048,20.822,1.1454,25.499-0.81314,3.0198-2.0061,4.4631-5.2688,6.3744l-4.2177,2.4708-54.5-0.14964c-29.975-0.0823-55.939-0.3105-57.699-0.5071zm109.51-21.988c-0.27869-3.3672-0.59107-3.7436-3.0604-3.6875-1.5125,0.0344-11.075,0.14687-21.25,0.25l-18.5,0.1875v3.5,3.5h21.56,21.56zm-98.639,1.095c1.0058-0.91024,1.8287-3.0123,1.8287-4.6713,0-6.4963-6.9796-9.0577-10.945-4.0166-4.7389,6.0245,3.443,13.822,9.1162,8.6879zm-6.8394-3.9226c-0.33295-0.86765,0.0669-2.2498,0.88853-3.0714,1.3252-1.3252,1.6746-1.3132,3.0942,0.10648,0.88021,0.8802,1.3464,2.2624,1.0359,3.0714-0.75111,1.9574-4.2552,1.883-5.0186-0.10648zm-5.8319-20.825c-6.4159-2.832-7-4.4277-7-19.122,0-12.739,0.10553-13.427,2.4401-15.912,1.3421-1.4286,4.0421-3.0655,6-3.6376,2.3341-0.682,22.67-0.93446,59.06-0.73318,49.768,0.27528,55.742,0.47827,57.842,1.9653,4.6814,3.3153,5.1618,4.988,5.2276,18.2,0.0702,14.098-0.88546,16.831-6.7416,19.278-4.7123,1.9689-112.36,1.933-116.83-0.0389zm111.5-21.617,0-4.0199-21.25,0.26989-21.25,0.26989-0.31037,3.75-0.31036,3.75,21.56,0,21.56,0zm-99.223,1.4632c1.4877-1.0421,2.2225-2.5864,2.2225-4.6713,0-6.569-6.9459-9.1988-10.927-4.1372-2.6853,3.4138-2.6127,4.9159,0.38197,7.9106,2.8378,2.8378,5.1908,3.0916,8.3229,0.89785zm-6.4456-4.0208c-0.33295-0.86765,0.15868-2.3302,1.0925-3.25,1.5878-1.564,1.7901-1.5481,3.1198,0.2455,1.0537,1.4213,1.1357,2.2629,0.31644,3.25-1.4978,1.8047-3.7897,1.6805-4.5287-0.2455zm-5.8319-20.806c-6.2293-2.7899-6.9713-4.6188-7.2903-17.969-0.25889-10.833-0.0671-12.507,1.7719-15.458,3.8935-6.2496,3.276-6.1898,63.921-6.1898,34.366,0,55.957,0.37624,57.607,1.0039,6.2306,2.3688,7.6211,5.8556,7.638,19.153,0.0154,12.071-0.86065,15.32-4.9459,18.343-2.6183,1.9378-4.4599,2.0072-59.202,2.2302-45.53,0.18553-57.082-0.0307-59.5-1.1134zm111.5-21.617,0-4-21.5,0-21.5,0,0,4,0,4,21.5,0,21.5,0zm-99.223,1.4433c4.1139-2.8815,2.2606-10.587-2.7775-11.549-4.7577-0.90809-9.285,4.8362-7.0715,8.9722,2.1864,4.0854,6.1971,5.1347,9.849,2.5768zm-6.4456-4.0208c-0.33295-0.86765,0.0391-2.222,0.82688-3.0098,1.9303-1.9303,5.2721,0.30105,4.2887,2.8637-0.82831,2.1585-4.3052,2.2578-5.1156,0.14608zm-3.7737-20.529c-2.081-0.33862-4.9019-1.783-6.3916-3.2727-2.6229-2.6229-2.6666-2.8857-2.6666-16.039,0-14.856,0.58473-16.413,7.2179-19.22,4.845-2.0507,111.83-1.9964,116.75,0.0592,5.2816,2.2068,6.4424,5.583,6.6342,19.296,0.17957,12.84-0.6506,15.651-5.3565,18.138-2.4071,1.2722-108.9,2.2246-116.19,1.0391zm109.44-21.894,0-4-21.5,0-21.5,0,0,4,0,4,21.5,0,21.5,0zm-98.75,0.19301c3.8909-3.3417,0.93003-10.193-4.405-10.193-2.7233,0-6.845,2.9715-6.845,4.9349,0,2.5617,2.221,6.2118,4.2355,6.9605,2.5567,0.95034,4.4651,0.48717,7.0145-1.7024zm-6-1.8553c-1.7152-0.69212-1.5688-2.8282,0.30019-4.3794,1.2788-1.0613,1.8328-1.004,3.1641,0.32737,1.3313,1.3313,1.3886,1.8853,0.32736,3.1641-1.3461,1.6219-1.7425,1.7148-3.7916,0.88791z"/>
</svg>
